<svg width="79" height="79" viewBox="0 0 79 79" fill="none" xmlns="http://www.w3.org/2000/svg">
<path d="M56.8732 26.2576L53.0063 8.57151L24.0647 14.8989L27.9316 32.5854L56.8736 26.2576H56.8732ZM50.4939 12.4902L52.9544 23.7453L30.4444 28.6663L27.9839 17.4117L50.4939 12.4902ZM33.2044 56.7035L66.9695 49.3211L62.3995 28.419L28.6348 35.801L33.2049 56.7031L33.2044 56.7035ZM63.0508 46.8087L35.7176 52.7843L32.5535 38.3134L59.8867 32.3378L63.0508 46.8087ZM71.0257 56.6574L70.3225 53.4419L36.3879 60.8609C35.1128 57.993 32.2503 55.9785 28.9138 55.9612H28.8701C28.8319 55.9612 28.7948 55.9662 28.757 55.967L19.2289 12.3865C19.0464 11.5411 18.6981 10.7402 18.204 10.0303C17.71 9.32035 17.0801 8.71544 16.3507 8.25057C15.6239 7.78175 14.8114 7.46174 13.9602 7.30904C13.1089 7.15635 12.2358 7.174 11.3914 7.361L6.56787 8.41556L7.27105 11.6315L12.0946 10.577C12.5167 10.4835 12.9532 10.4746 13.3788 10.5509C13.8044 10.6272 14.2106 10.7871 14.574 11.0213C14.9387 11.2538 15.2537 11.5563 15.5007 11.9114C15.7477 12.2664 15.9218 12.6669 16.0129 13.0897L25.541 56.6689C24.627 57.0723 23.7941 57.6389 23.0834 58.3411C22.313 59.0993 21.7007 60.0028 21.2819 60.9993C20.8631 61.9958 20.6461 63.0654 20.6434 64.1464C20.6349 65.2273 20.8409 66.2991 21.2494 67.2999C21.6579 68.3007 22.2608 69.2105 23.0233 69.9767C23.7816 70.7471 24.6852 71.3594 25.6818 71.7782C26.6783 72.197 27.748 72.414 28.829 72.4167H28.8718C33.3888 72.4167 37.0754 68.7539 37.0989 64.2315C37.0989 64.1793 37.0927 64.1287 37.0919 64.0764L71.0257 56.6574ZM28.8718 69.125H28.8459C28.1974 69.1234 27.5556 68.9932 26.9577 68.7419C26.3599 68.4906 25.8178 68.1232 25.3629 67.661C24.4354 66.7241 23.9285 65.482 23.9351 64.1636C23.9417 62.8453 24.4618 61.6081 25.3987 60.6806C25.8552 60.2263 26.3968 59.8663 26.9926 59.6213C27.5883 59.3763 28.2264 59.2511 28.8706 59.2529H28.8969C31.6183 59.2669 33.8212 61.4925 33.8072 64.2147C33.7932 66.9278 31.5817 69.125 28.8718 69.125Z" fill="#71767C"/>
</svg>
