<?xml version="1.0" encoding="utf-8"?>
<!-- Generator: Adobe Illustrator 26.3.1, SVG Export Plug-In . SVG Version: 6.00 Build 0)  -->
<svg version="1.1" id="Icon_x5F_contour" xmlns="http://www.w3.org/2000/svg" xmlns:xlink="http://www.w3.org/1999/xlink" x="0px"
	 y="0px" viewBox="0 0 192 192" style="enable-background:new 0 0 192 192;" xml:space="preserve">
<path d="M173.5907,32.48895c-0.0899-0.93903-0.35327-1.86249-0.77423-2.72845c-0.10382-0.2135-0.21851-0.42236-0.34241-0.62781
	c-0.19226-0.31885-0.3999-0.63098-0.64069-0.92615c-0.17084-0.20947-0.35394-0.41235-0.54919-0.6076l-6.88177-6.88177
	c-0.19525-0.19525-0.39813-0.37836-0.6076-0.54919c-0.62842-0.51257-1.31659-0.91534-2.03882-1.20819
	c-0.96301-0.39056-1.98676-0.58575-3.01044-0.58575c-1.02374,0-2.04736,0.19519-3.01044,0.58575
	c-0.72223,0.29285-1.41034,0.69562-2.03882,1.20819c-0.20947,0.17084-0.41235,0.35394-0.6076,0.54919l-8.68231,8.68231
	c-1.30304-0.82758-2.79095-1.2467-4.28119-1.2467c-2.04736,0-4.09479,0.78101-5.65686,2.34314l-72.12494,72.12488l5.03308,5.03308
	L34.8501,140.18115l2.12109,2.12103l-9.8996,9.8996l3.53546,3.5354l-13.43518,13.43518l0.00012,0.00012
	c-1.56195,1.56201-1.56195,4.09467,0.00012,5.65674c1.56201,1.56201,4.09467,1.56201,5.65674,0.00012l0.00024,0.00024
	l13.43518-13.43518l3.53522,3.53528l9.8996-9.89954l2.12122,2.12122L84.3476,124.625l5.0329,5.0329l72.12494-72.12488
	c2.6991-2.6991,3.06104-6.84479,1.09644-9.93811l8.68231-8.68231c0.19525-0.19525,0.37836-0.39813,0.54919-0.6076
	c1.19604-1.46637,1.79401-3.25775,1.79395-5.04926C173.62738,32.99982,173.61511,32.74396,173.5907,32.48895z M125.9801,50.29218
	l15.72601,15.72638l-23.2583,23.2583l-15.72485-15.72522L125.9801,50.29218z M51.82031,145.83789l-5.65674-5.65674
	l26.87012-26.87012l5.65674,5.65674L51.82031,145.83789z M73.65686,102.62054l23.40912-23.41138l15.72461,15.72491
	l-23.4101,23.41003L73.65686,102.62054z M147.3634,60.36133L131.63708,44.6347l8.48047-8.48132
	c0.00073-0.00018,0.0036-0.00067,0.00763-0.00067l-0.00006,0.00006l15.72345,15.72339L147.3634,60.36133z"/>
<g>
</g>
<g>
</g>
<g>
</g>
<g>
</g>
<g>
</g>
<g>
</g>
<g>
</g>
<g>
</g>
<g>
</g>
<g>
</g>
<g>
</g>
<g>
</g>
<g>
</g>
<g>
</g>
<g>
</g>
</svg>
