<?xml version="1.0" encoding="utf-8"?>
<!-- Generator: Adobe Illustrator 26.4.0, SVG Export Plug-In . SVG Version: 6.00 Build 0)  -->
<svg version="1.1" id="Icon_x5F_contour" xmlns="http://www.w3.org/2000/svg" xmlns:xlink="http://www.w3.org/1999/xlink" x="0px"
	 y="0px" viewBox="0 0 192 192" style="enable-background:new 0 0 192 192;" xml:space="preserve">
<path d="M176,136V32H16v104h64v16H64v8h64v-8h-16v-16H176z M24,40h144v88H24V40z M104,152H88v-16h16V152z M32,120h40V96H32V120z
	 M40,104h24v8H40V104z M84,95.99854h8v24h-8V95.99854z M100,103.99854h8v16h-8V103.99854z M116,95.99854h8v24h-8V95.99854z
	 M148,91.99854h8v28h-8V91.99854z M132,99.99854h8v20h-8V99.99854z M68,64H56V52c0-2.20898-1.79102-4-4-4
	c-11.02783,0-20,8.97217-20,20s8.97217,20,20,20s20-8.97217,20-20C72,65.79102,70.20898,64,68,64z M52,80c-6.6167,0-12-5.3833-12-12
	c0-5.21484,3.34375-9.66357,8-11.31445V68c0,2.20898,1.79102,4,4,4h11.31445C61.66357,76.65625,57.21484,80,52,80z M143.82959,64
	H156v8h-14.62891c-1.50781,0-2.8877-0.84814-3.56885-2.19336l-0.0542-0.10742l-3.10205,7.75146
	c-0.59863,1.49561-2.03662,2.48633-3.64746,2.51318c-1.56592,0.02783-3.08008-0.91553-3.72852-2.39062l-6.63525-15.10254
	l-8.90527,22.9751c-0.56592,1.45996-1.93164,2.45557-3.49512,2.54736C108.15576,87.99756,108.07715,88,107.99902,88
	c-1.47412,0-2.83789-0.81348-3.53369-2.12793L97.11768,72H84v-8h15.52539c1.48145,0,2.84131,0.81885,3.53467,2.12793
	l4.37549,8.26025l9.23828-23.83398c0.58496-1.50928,2.02246-2.51758,3.64111-2.55322
	c1.64404-0.02441,3.09961,0.9082,3.75049,2.39014l6.69482,15.23779l2.84717-7.11523
	c0.58398-1.45898,1.96826-2.44092,3.53809-2.50977c1.57861-0.06201,3.03467,0.78711,3.74463,2.18945L143.82959,64z"/>
<g>
</g>
<g>
</g>
<g>
</g>
<g>
</g>
<g>
</g>
<g>
</g>
<g>
</g>
<g>
</g>
<g>
</g>
<g>
</g>
<g>
</g>
<g>
</g>
<g>
</g>
<g>
</g>
<g>
</g>
</svg>
