<?xml version="1.0" encoding="UTF-8"?>
<!-- Generator: Adobe Illustrator 24.0.1, SVG Export Plug-In . SVG Version: 6.00 Build 0)  -->
<svg xmlns="http://www.w3.org/2000/svg" xmlns:xlink="http://www.w3.org/1999/xlink" version="1.1" id="Icon_x5F_contour" x="0px" y="0px" viewBox="0 0 192 192" style="enable-background:new 0 0 192 192;" xml:space="preserve">
<path d="M151.9994,56.00021h-3.99957H44.00043h-4.00089v-15.9996h24.00006h63.99973h24.00007V56.00021z M139.99936,159.9996  c0,4.41168-3.58878,8.00046-7.99913,8.00046H60.00004c-4.41167,0-8.00046-3.58878-8.00046-8.00046V64.00067H68.0005v55.99927  h7.99915V64.00067h16.00092v55.99927h7.99915V64.00067h15.9996v55.99927h8.00046V64.00067h15.9996V159.9996z M80.00053,23.99968  h31.99921c4.41167,0,8.00045,3.58879,8.00045,8.00046H72.00007C72.00007,27.58846,75.58885,23.99968,80.00053,23.99968   M159.99986,32.00014h-32.00053c0-8.82203-7.17757-15.9996-15.9996-15.9996H80.00053c-8.82336,0-16.00092,7.17757-16.00092,15.9996  H32.0004v32.00053h12.00003v95.99893c0,8.82204,7.17756,16.00092,15.9996,16.00092h72.00019  c8.82204,0,15.9996-7.17888,15.9996-16.00092V64.00067h12.00003V32.00014z" style="fill: #9e2896;"/>
<g>
</g>
<g>
</g>
<g>
</g>
<g>
</g>
<g>
</g>
<g>
</g>
<g>
</g>
<g>
</g>
<g>
</g>
<g>
</g>
<g>
</g>
<g>
</g>
<g>
</g>
<g>
</g>
<g>
</g>
</svg>
