<?xml version="1.0" encoding="UTF-8"?>
<svg xmlns="http://www.w3.org/2000/svg" version="1.1" viewBox="0 0 192 192">
  <!-- Generator: Adobe Illustrator 28.7.1, SVG Export Plug-In . SVG Version: 1.2.0 Build 142)  -->
  <g>
    <g id="Icon_x5F_contour">
      <g>
        <path d="M56,88c0-5.8,2.2-8,8-8s8,2.2,8,8v2.9c2.2-2.3,4.9-4.2,7.9-5.3-.6-5.8-3.3-9.9-7.9-12h0c3.7-2.5,6.1-6.8,6.1-11.5,0-7.7-6.3-14-14-14s-14,6.3-14,14,2.4,9,6.1,11.5c0,0,0,0,0,0-5.2,2.3-8.1,7.3-8.1,14.5v11.2l-9.9,24.8h13.9v36h8v-44h-10.1l6.1-15.2v-12.8ZM64,56c3.3,0,6,2.7,6,6s-2.7,6-6,6-6-2.7-6-6,2.7-6,6-6Z"/>
        <path d="M96.2,117.3c3.5-2.5,5.8-6.7,5.8-11.3,0-7.7-6.3-14-14-14s-14,6.3-14,14,2.3,8.8,5.8,11.3c-8.5,3.1-11.8,11.1-11.8,18.7v12h8v12h8v-20h-8v-4c0-5.5,2.1-12,12-12s12,3.9,12,12v4h-8v20h8v-12h8v-12c0-9.5-4.3-16-11.8-18.7ZM88,112c-3.3,0-6-2.7-6-6s2.7-6,6-6,6,2.7,6,6-2.7,6-6,6Z"/>
        <path d="M138.2,73.3s0,0,0,0c3.5-2.5,5.8-6.7,5.8-11.3,0-7.7-6.3-14-14-14s-14,6.3-14,14,2.3,8.8,5.8,11.3c0,0,0,0,0,0-8.5,3.1-11.8,11.1-11.8,18.7v28h8v40h8v-48h-8v-20c0-5.5,2.1-12,12-12s12,3.9,12,12v20h-8v48h8v-40h8v-28c0-9.5-4.3-16-11.8-18.7ZM130,56c3.3,0,6,2.7,6,6s-2.7,6-6,6-6-2.7-6-6,2.7-6,6-6Z"/>
      </g>
    </g>
  </g>
</svg>