<?xml version="1.0" encoding="utf-8"?>
<!-- Generator: Adobe Illustrator 24.0.1, SVG Export Plug-In . SVG Version: 6.00 Build 0)  -->
<svg version="1.1" id="Icon_x5F_contour" xmlns="http://www.w3.org/2000/svg" xmlns:xlink="http://www.w3.org/1999/xlink" x="0px"
	 y="0px" viewBox="0 0 192 192" style="enable-background:new 0 0 192 192;" xml:space="preserve">
<path d="M128,114.53809V73.3623L96,59.64844L64,73.3623v41.17578l32,13.71387L128,114.53809z M100,117.83447V90.63733l20-8.57111
	v27.19647L100,117.83447z M113.84558,76L96,83.64844L78.15442,76L96,68.35156L113.84558,76z M72,82.06622l20,8.57111v27.19714
	l-20-8.57178V82.06622z M169.17139,110.82812l-5.79022-5.78992c-4.04126,30.27594-28.06732,54.30194-58.3432,58.34302
	l5.79065,5.79065l-5.65723,5.65625L90.34326,160l14.82812-14.82812l5.65723,5.65625l-4.21222,4.21222
	c24.5863-4.41046,44.01337-23.8374,48.42389-48.42365l-4.21167,4.21143l-5.65723-5.65625L160,90.34277l14.82861,14.8291
	L169.17139,110.82812z M36.95972,85.3833l4.21167-4.21143l5.65723,5.65625L32,101.65723l-14.82861-14.8291l5.65723-5.65625
	l5.79022,5.78992c4.04126-30.27594,28.06732-54.30194,58.3432-58.34302l-5.79065-5.79065l5.65723-5.65625L101.65674,32
	L86.82861,46.82812l-5.65723-5.65625l4.21222-4.21222C60.7973,41.37012,41.37024,60.79706,36.95972,85.3833z"/>
<g>
</g>
<g>
</g>
<g>
</g>
<g>
</g>
<g>
</g>
<g>
</g>
<g>
</g>
<g>
</g>
<g>
</g>
<g>
</g>
<g>
</g>
<g>
</g>
<g>
</g>
<g>
</g>
<g>
</g>
</svg>
