<svg width="93" height="89" viewBox="0 0 93 89" fill="none" xmlns="http://www.w3.org/2000/svg">
<path d="M59.1367 38.0988C61.564 38.0988 63.5499 40.0435 63.5499 42.4302C63.5499 43.9771 62.7114 45.3031 61.4757 46.0986C60.8137 46.5406 59.9752 46.7616 59.1367 46.7616C58.9161 46.7616 58.6954 46.7616 58.4747 46.7174C56.3564 46.408 54.7235 44.5959 54.7235 42.4302C54.7235 40.0435 56.7095 38.0988 59.1367 38.0988ZM37.9534 42.4302C37.9534 44.8169 39.9393 46.7616 42.3666 46.7616C44.7938 46.7616 46.7798 44.8169 46.7798 42.4302C46.7798 40.0435 44.7938 38.0988 42.3666 38.0988C39.9393 38.0988 37.9534 40.0435 37.9534 42.4302ZM48.9422 73.5457C46.8239 73.9877 44.6173 74.2529 42.3666 74.2529C24.8462 74.2529 10.5916 59.9768 10.5916 42.4302C10.5916 24.8835 24.8462 10.6075 42.3666 10.6075C59.887 10.6075 74.1416 24.8835 74.1416 42.4302C74.1416 44.6843 73.9209 46.8942 73.4355 49.0157C74.5388 49.7671 75.5538 50.651 76.4364 51.6234C77.2308 48.7063 77.628 45.6124 77.628 42.4302C77.628 22.9388 61.7846 7.07166 42.3225 7.07166C22.8603 7.07166 7.06104 22.9388 7.06104 42.4302C7.06104 61.9216 22.9044 77.7887 42.3666 77.7887C45.5441 77.7887 48.5892 77.3467 51.546 76.5954C50.5751 75.6672 49.6925 74.6506 48.9422 73.5457ZM65.3152 56.7946V56.5736H61.7846V61.8774H56.4888V65.4132H61.7846V70.717H65.3152V65.4132H70.611V61.8774H65.3152V56.7946ZM75.1566 55.557C76.7454 57.8553 77.6721 60.6398 77.6721 63.6453C77.6721 71.4242 71.3613 77.7887 63.5499 77.7887C60.5489 77.7887 57.7686 76.8605 55.4738 75.2694C54.3705 74.518 53.3996 73.5899 52.5611 72.5733C50.5751 70.1424 49.3836 67.0486 49.3836 63.6453C49.3836 55.8222 55.6944 49.5019 63.5058 49.5019C66.8598 49.5019 69.9932 50.6952 72.4204 52.6842C73.4796 53.5239 74.3622 54.4963 75.1566 55.557ZM74.1416 63.6453C74.1416 62.1426 73.8327 60.7724 73.3031 59.4907C72.7735 58.2531 71.9791 57.104 71.0523 56.1758C69.1547 54.2753 66.5068 53.0819 63.5499 53.0819C57.7245 53.0819 52.9583 57.8553 52.9583 63.6895C52.9583 66.6066 54.1498 69.2585 56.0475 71.2032C57.0184 72.1755 58.1217 72.9269 59.3574 73.4573C60.6372 73.9877 62.0494 74.2971 63.5058 74.2971C69.3753 74.2529 74.1416 69.4795 74.1416 63.6453ZM21.1833 42.4302C21.1833 44.8169 23.1692 46.7616 25.5965 46.7616C28.0237 46.7616 30.0096 44.8169 30.0096 42.4302C30.0096 40.0435 28.0237 38.0988 25.5965 38.0988C23.1692 38.0988 21.1833 40.0435 21.1833 42.4302Z" fill="#71767C"/>
</svg>
