<?xml version="1.0" encoding="UTF-8"?>
<!-- Generator: Adobe Illustrator 24.0.1, SVG Export Plug-In . SVG Version: 6.00 Build 0)  -->
<svg xmlns="http://www.w3.org/2000/svg" xmlns:xlink="http://www.w3.org/1999/xlink" version="1.1" id="Icon_x5F_contour" x="0px" y="0px" viewBox="0 0 192 192" style="enable-background:new 0 0 192 192;" xml:space="preserve">
<path d="M16,148h40v8H16V148z M170.84961,77.34912l-2.82861,2.82861l-0.021-0.021l-65.95508,65.95508l-39.54248,9.88574  l9.88574-39.54248l68.7627-68.80469c8.1875-8.1875,21.51074-8.1875,29.69824,0  C179.03711,55.83887,179.03711,69.16113,170.84961,77.34912z M100.00024,136.84302l54.34949-54.34949l-18.30121-18.38531  l-54.39154,54.39154L100.00024,136.84302z M73.49756,145.00244l18.67822-4.66943l-14.00879-14.00879L73.49756,145.00244z   M165.19238,53.30713c-4.8584-4.85889-12.63867-5.06006-17.73975-0.60303l-5.74731,5.74731l18.30115,18.38538l5.78943-5.78943  C170.25244,65.94678,170.05127,58.1665,165.19238,53.30713z" style="fill: #007bc0;"/>
<g>
</g>
<g>
</g>
<g>
</g>
<g>
</g>
<g>
</g>
<g>
</g>
<g>
</g>
<g>
</g>
<g>
</g>
<g>
</g>
<g>
</g>
<g>
</g>
<g>
</g>
<g>
</g>
<g>
</g>
</svg>
